<?xml version="1.0" encoding="UTF-8"?>
<svg viewBox="0 0 744.09448819 1052.3622047" xmlns="http://www.w3.org/2000/svg">
 <path d="m304.66 1.7066c-111.06 0-201.06 85.329-201.06 190.64 0 78.193 49.628 145.36 120.66 174.78l-69.527 172.97-153.03 381.05h1.4336c-0.79006 2.3573-1.1946 4.7246-1.1946 7.1361 0 44.187 135.38 79.97 302.48 79.97s302.6-35.782 302.6-79.97c0-0.65222-0.0609-1.2772-0.11942-1.9257h0.83627l-1.792-4.5308c-0.35776-1.1759-0.76633-2.3504-1.3141-3.5114l-146.94-375.61-69.169-177.04c69.185-30.143 117.31-96.382 117.31-173.31 0-105.31-90.113-190.64-201.18-190.64z" fill="#00f" stroke="#000" stroke-width="3.4132"/>
</svg>
