<?xml version="1.0" encoding="UTF-8"?>
<svg enable-background="new 0 0 109.826 448.673" viewBox="0 0 109.826 448.673" xmlns="http://www.w3.org/2000/svg">
 <path d="m82.793,1.75c.995,12.751 1.036,23.588 1.267,35.904-.856-1.396-3.483-1.022-5.068-1.689-.319-5.835-.22-13.225-.845-19.853 3.337.181 4.696-3.193 3.379-6.336-.614-.653-2.162-.372-3.379-.422 .236-2.556-.384-5.319 0-6.759 1.352-.478 2.801-.859 4.646-.845z" fill="#f2e18c" fill-rule="evenodd"/>
 <path d="m50.69,2.173c.342.081.421.424.845.422 .227,79.431 1.267,141.332 1.267,225.142 0,10.466.166,19.807.422,29.146 1.048,38.055.254,90.792 1.267,133.48 .433,18.241-.801,36.866.845,55.758-2.753.831-4.348-2.907-7.604-2.957 .915-2.03-.002-4.258 0-6.336 .135-119.174-.476-223.792 0-324.83 .146-31.005.422-59.919.422-96.731 0-4.248-1.002-8.657.845-12.672 .884.179 1.12-.289 1.691-.422z" fill="#f2e18c" fill-rule="evenodd"/>
 <path d="m53.646,2.173c3.177.201 2.037,4.023 2.112,5.491 1.03,20.083-.74,39.207 0,58.714 .124,3.261.498,6.566.422,11.405-.724,46.393 1.654,95.519.845,148.264-.122,7.97.351,16.924.422,25.767 .177,21.908.845,51.587.845,78.989 0,18.503.845,37.666.845,57.025 0,17.652.518,34.76.423,52.378-.011,1.997.731,5.127-.845,6.336-3.46.167-2.062-4.11-2.112-5.491-.636-17.493-.175-34.939-.422-51.111-.53-34.709-1.063-71.072-1.267-108.98-.051-9.491.422-19.112 0-28.724-1.942-44.179-.573-92.978-1.268-139.816-.522-35.251-.02-72.625-.844-108.98-.144-.848.086-1.321.844-1.267z" fill="#f8edb5" fill-rule="evenodd"/>
 <path d="m85.327,3.018c2.615.798 1.569,4.186 1.689,5.914 1.651,23.676 1.501,50.582 2.957,76.878 1.461,26.374 2.307,54.638 3.802,82.369 2.952,54.791 5.022,113.079 7.604,167.272 1.501,31.525 3.846,63.856 5.068,95.041 .089,2.275.377,4.808.423,7.182 .032,1.702.931,4.725-1.268,5.913-3.331.095-2.052-4.047-2.112-5.491-1.481-35.771-3.821-70.539-5.491-105.602-.441-9.274-.229-18.543-.845-27.878-2.218-33.648-3.578-74.464-5.068-107.292-.825-18.148-1.27-36.999-2.112-56.18-2.036-46.279-4.444-93.643-5.492-136.859-.143-.848.086-1.322.845-1.267z" fill="#f8edb5" fill-rule="evenodd"/>
 <path d="m81.103,11.888c-.902,2.17-4.673,1.419-7.181,1.689-4.079.441-11.861.673-16.051.423v-1.69c.845-1.232 3.189-1.154 4.647-1.267 3.191-.249 7.578.105 9.715,0 2.716-.133 7.445-1.717 8.87.845z" fill="#f8edb5" fill-rule="evenodd"/>
 <path d="m81.948,39.767c-3.432.879-7.888.646-12.25.845-4.2.191-8.882,1.246-11.828,0-.914-3.866 3.612-2.073 5.914-2.112 2.877-.048 7.326-.271 10.982-.422 2.868-.119 7.007-1.632 7.182,1.689z" fill="#f8edb5" fill-rule="evenodd"/>
 <path d="m83.638,38.922c.458.104.286.84.845.845 .227,10.006.393,20.087 1.267,27.879-1.578-1.683-3.537-2.158-5.913-2.112 .039-6.654-.679-14.7-.423-22.81h2.957c.686-1.003.819-2.559 1.267-3.802z" fill="#f2e18c" fill-rule="evenodd"/>
 <path d="m83.215,68.068c.42,3.32-3.15,1.988-5.491,2.112-3.977.211-9.406.271-13.939.422-2.178.073-5.274,1.683-5.914-.845-.243-2.243 2.924-1.949 4.224-2.112 3.442-.432 8.055.175 11.827,0 3.522-.163 7.056-1.381 9.293.423z" fill="#f8edb5" fill-rule="evenodd"/>
 <path d="m84.904,69.335c.491-.069.752.093.845.422-.177,10.062.618,15.888.846,25.767-1.356-1.32-2.601-2.75-5.914-2.112-.341-5.146-.308-12.632-.845-20.275 2.481-.475 5.375-.538 5.068-3.802z" fill="#f2e18c" fill-rule="evenodd"/>
 <path d="m84.904,97.214c-1.568,2.006-4.741,1.222-7.181,1.267-5.061.094-14.185.541-19.431.845-.415-1.726.046-1.707 0-3.802 5.888-.942 17.569.088 23.232-.845 1.165-.191 3.599.696 3.38,2.535z" fill="#f8edb5" fill-rule="evenodd"/>
 <path d="m86.172,97.214c.376.187.756.371.845.845 .047,8.983.82,17.495 1.268,27.034-.98-.152-4.514-1.011-6.759-1.267 .022-7.501.121-17.277-.423-22.81h4.225c.486-1.281-.189-2.436.844-3.802z" fill="#f2e18c" fill-rule="evenodd"/>
 <path d="m85.749,126.36c-.598,4.513-8.088,2.144-12.672,2.535-3.515.3-10.425.649-14.784.422 .581-1.336.092-1.412 0-2.957 6.534-.471 15.302-.717 21.965-.845 1.982-.037 4.337-1.219 5.491.845z" fill="#f8edb5" fill-rule="evenodd"/>
 <path d="m88.284,130.162c-.417,8.681.496,15.791.845,23.655-1.777-.411-3.651.218-6.336,0-.28-6.69-1.015-14.137-.845-22.387 2.46.09 4.844-1.755 6.336-1.268z" fill="#f2e18c" fill-rule="evenodd"/>
 <path d="m87.017,156.773c-1.543,3.055-7.176,1.498-11.405,1.689-5.905.268-12.425.776-16.896.422-.724-5.595 8.946-3.196 13.517-3.379 5.573-.222 12.573-1.9 14.784,1.268z" fill="#f8edb5" fill-rule="evenodd"/>
 <path d="m88.706,158.463c.376.187.756.371.845.845-.31,10.366.674,14.483.845,24.5-1.423-.125-1.225-1.873-2.534-2.112-2.058-.284-2.802.744-4.224,0 .138-7.178-.748-13.332-.423-20.698 2.029-.647 5.382.03 5.491-2.535z" fill="#f2e18c" fill-rule="evenodd"/>
 <path d="m88.706,184.652c-.127,3.251-4.379,2.087-6.758,2.112-6.058.063-11.464.162-16.475.422-2.515.131-5.511.846-6.758-.845-.485-3.586 4.046-2.487 6.336-2.535 2.802-.058 5.991.112 8.448,0 5.649-.255 12.017-1.628 15.207.846z" fill="#f8edb5" fill-rule="evenodd"/>
 <path d="m89.551,187.187c.491-.069.752.093.845.422 1.405,25.291 2.559,54.517 3.802,82.792 .897,20.404 1.609,37.924 2.535,58.291 .455,10.02 1.138,20.063 1.267,29.146-1.687-1.27-3.961-1.952-7.181-1.689-.475-6.549-.078-13.956-.845-21.12 1.471-.923 4.903.116 5.913-1.268 .279-2.076.58-4.281-.422-5.914-1.263-.849-3.985-.238-5.914-.422-.485-6.358-.243-15.625-.845-21.543 1.838.008 2.355-1.306 4.646-.845 .674-2.12 2.067-5.666.423-7.604-1.14-.831-3.691-.251-5.491-.422 .145-6.915-1.221-15.828-.845-20.275 .799-.75 2.789-.308 4.224-.423 2.933-4.479.979-9.479-4.646-8.448-.141-8.1-.192-14.812-.845-21.965 2.162.332 3.068-.593 5.068-.423 .065-1.414.935-4.664 0-6.758-1.386-1.078-2.946.493-5.068,0-1.252-5.538-.4-14.364-1.268-19.008 .148-1.401 2.436-.663 3.802-.845 1.323-1.493 1.804-3.828 2.534-5.914-.526-2.289-4.325-1.306-6.336-2.112 .188-6.558-.661-13.757-.845-21.12 1.699-.977 5.799.449 5.492-2.533z" fill="#f2e18c" fill-rule="evenodd"/>
 <path d="m89.129,215.065c-4.681,1.681-10.771.594-16.474.845-4.887.215-9.726,1.059-13.94,0-.214-3.621 3.195-2.877 6.336-2.957 5.974-.151 11.803-.367 17.741-.422 2.904-.027 6.287-.593 6.337,2.534z" fill="#f8edb5" fill-rule="evenodd"/>
 <path d="m90.818,241.254c-.574,3.221-4.734,2.087-7.181,2.112-2.862.029-6.111-.093-8.871,0-5.082.171-11.577,1.396-15.629-.423 .194-4.082 5.486-2.402 8.871-2.534 6.254-.243 15.764-1.514 20.275-.845 1.031.153 2.147.27 2.535,1.69z" fill="#f8edb5" fill-rule="evenodd"/>
 <path d="m91.663,273.357c-7.156,1.435-22.484,1.229-32.103,1.268-.744-1.423.284-2.166 0-4.224 5.191-.506 13.067-.537 19.853-.846 2.956-.134 6.417-.715 8.448-.422 2.327.335 4.664,1.197 3.802,4.224z" fill="#f8edb5" fill-rule="evenodd"/>
 <path d="m59.983,303.348v-3.802c6.458-.113 17.062-1.007 25.766-1.268 3.051-.091 7.561-.13 7.182,2.535-.431,3.029-15.496,2.317-20.275,2.534-4.187.192-8.497-.14-12.673.001z" fill="#f8edb5" fill-rule="evenodd"/>
 <path d="m94.62,329.959c-.239,3.538-4.293,2.04-6.759,2.112-7.987.234-19.815,1.044-27.456,0v-1.689c1.25-1.437 4.556-1.191 7.604-1.268 6.124-.153 11.283-.026 16.474-.423 3.653-.277 7.906-.757 10.137,1.268z" fill="#f8edb5" fill-rule="evenodd"/>
 <path d="m96.31,360.795c-9.478-.94-22.747,2.889-32.947.845-1.213-.243-3.532.315-2.957-2.112 1.315-2.268 5.307-1.267 8.025-1.267 5.568,0 13.266-.339 17.318-.423 4.204-.087 10.646-2.35 10.561,2.957z" fill="#f8edb5" fill-rule="evenodd"/>
 <path d="m97.577,361.64c.359-.078.398.165.422.422 2.043,15.776 1.59,35.141 2.957,54.913-1.384.971-1.995-1.751-3.379-2.112-2.044-.27-2.987.559-4.225,0 .048-8.588-.482-14.049-1.267-21.542 4.291-.074 7.512-1.219 6.336-6.759-.637-2.039-3.636-1.715-6.336-1.689 .287-5.957-.599-15.22-.846-20.698 2.295-.664 5.644-.272 6.338-2.535z" fill="#f2e18c" fill-rule="evenodd"/>
 <path d="m96.732,389.519c-.78,1.671-2.998.729-4.225.845-9.395.886-21.515.874-31.681.845 .256-1.012.607-1.927.423-3.379 7.121-.583 16.858-.399 24.077-1.268 3.085-.371 13.196-1.404 11.406,2.957z" fill="#f8edb5" fill-rule="evenodd"/>
 <path d="m98.844,419.932c-3.49,1.605-7.349.721-10.982.845-7.032.24-18.051,1.953-26.611.422 .135-.991.667-1.585.422-2.956 7.262-.923 21.887-1.261 30.836-1.268 3.083-.002 5.993-.78 6.335,2.957z" fill="#f8edb5" fill-rule="evenodd"/>
 <path d="m100.111,418.665c.491-.068.752.094.845.423 .33,8.464.613,15.587 1.268,24.499-3.373-.429-5.593-2.011-8.026-3.379 .895-3.41.637-11.892-.422-16.052 3.974.032 6.238-1.647 6.335-5.491z" fill="#f2e18c" fill-rule="evenodd"/>
 <path d="m.001,424.579c6.196-.984 14.22-.142 21.121-.423-.876,2.662-4.041.86-5.914.845-4.301-.036-9.638.688-15.207-.422z" fill-rule="evenodd"/>
 <path d="m.001,425.845c9.234.562 18.19.803 26.189.846-1.179,1.519-4.658.885-7.181.845-5.106-.083-13.382.616-17.741-.423-.482-.115-1.302.278-1.267-1.268z" fill-rule="evenodd"/>
 <path d="m1.691,428.38c12.237.236 23.75-.45 34.637.422-.73,2.218-3.392,1.254-5.069,1.268-3.439.027-9.388-.239-15.207-.423-4.782-.15-9.889.398-13.095,0-.82-.102-1.129.254-1.266-1.267z" fill-rule="evenodd"/>
 <path d="m21.966,431.337c-1.018,1.883-3.525.473-5.491.422-4.317-.111-9.29.19-12.25,0-.718.155-.797-.329-.845-.845 4.778-.099 13.226-.295 18.586.423z" fill-rule="evenodd"/>
 <path d="m28.725,430.915c3.644,1.068 12.382-1.743 15.207,1.268-4.085-.595-10.376.793-13.939,0-.64-.143-1.49-.138-1.268-1.268z" fill-rule="evenodd"/>
 <path d="m25.346,433.449c-.977,2.939-3.9.452-5.914.423-4.698-.068-10.569,2.179-14.784,0 6.924-1.013 13.307-.393 20.698-.423z" fill-rule="evenodd"/>
 <path d="m29.569,436.829c-6.367-.079-13.844-.627-22.387-.423 .451-1.622 2.481-.81 3.379-.845 4.49-.175 10.066.228 14.362.422 1.64.075 4.284-1.677 4.646.846z" fill-rule="evenodd"/>
 <path d="m89.129,2.173c2.082,46.047 3.393,91.599 6.336,138.971 2.365,38.083 2.104,76.216 5.068,113.205 .361,4.504-.191,9.152 0,13.517 .454,10.318 1.251,20.427 1.69,30.413 .872,19.833 1.48,39.165 2.534,58.292 1.625,29.494 4.299,57.703 5.068,88.283-7.874,1.749-16.009.672-23.654.422-7.754-.252-15.675-.905-24.077-.845-1.133,1.038.741,2.894-.423,4.225-10.277.151-20.775-.693-31.258-1.268 .636-1.534 2.189.036 3.802-.845-2.576-1.968-7.054.74-9.293-1.689 8.763.293 14.135-.349 21.965,0-1.268-1.625-3.642-.672-5.491-.845-1.658-.155-3.339-.893-5.069-.845-3.202.088-6.263.725-10.56.422-1.709-.12-4.539.981-5.069-1.267 9.177.032 18.639.718 25.767.422-3.896-1.712-8.887-.9-13.939-1.267-4.055-.295-10.814-.305-15.629-.846 1.23-1.229 3.781-.932 5.914-.845 6.955.285 16.07,1.426 23.232.845 .122-1.614-1.715-.631-2.535-.845-1.679-.437-5.723-1.501-8.871-1.267-1.231.091-2.181.831-3.379.845-6.706.078-13.496-.247-19.853-.423-.092-2.076 6.285.107 5.491-1.267 3.846-.057 13.249,1.848 16.896-.423 3.619.648 9.445,1.198 12.672.845-.625-2.473-7.166.971-7.181-2.112 2.785-.544 5.187,1.114 7.181,0-1.663-3.405-11.045.907-12.672-2.534 3.958-.016 8.009-.124 11.405.423 1.466-4.619.58-9.407.422-14.362-.187-5.89.246-12.971.422-19.008 .558-19.139 0-39.682 0-59.56 0-25.08.203-46.915-.422-68.43-.113-3.895.386-7.824.422-11.827 .203-22.385-.133-44.999-.422-65.473-.164-11.603-.078-27.385 0-41.818 .23-42.72.955-84.95.422-125.877-.105-8.109-.418-16.592.845-25.767 3.046-1.085 7.625-2.539 10.982-.845 .302,2.147-.187,5.605 0,8.871 5.56.881 12.139-.792 18.586-.422 .921-2.351-.958-5.556 0-8.026 4.296-1.479 9.728-2.34 12.675.847zm-10.983.422c-.384,1.44.236,4.203 0,6.759 1.217.05 2.765-.231 3.379.422 1.317,3.143-.042,6.517-3.379,6.336 .625,6.628.525,14.018.845,19.853 1.585.667 4.212.294 5.068,1.689-.23-12.316-.271-23.153-1.267-35.904-1.844-.014-3.293.367-4.646.845zm-29.146,0c-1.847,4.016-.845,8.425-.845,12.672 0,36.812-.276,65.726-.422,96.731-.476,101.038.135,205.656 0,324.83-.002,2.078.915,4.306 0,6.336 3.255.05 4.85,3.788 7.604,2.957-1.646-18.892-.412-37.517-.845-55.758-1.013-42.688-.219-95.426-1.267-133.48-.257-9.339-.422-18.68-.422-29.146 0-83.81-1.041-145.711-1.267-225.142-.424.001-.503-.342-.845-.422-.572.133-.808.601-1.691.422zm3.802.845c.824,36.355.322,73.729.845,108.981 .694,46.838-.675,95.637 1.268,139.816 .422,9.611-.051,19.232 0,28.724 .204,37.908.737,74.271 1.267,108.98 .247,16.172-.214,33.618.422,51.111 .05,1.381-1.348,5.658 2.112,5.491 1.577-1.209.834-4.339.845-6.336 .095-17.618-.423-34.726-.423-52.378 0-19.359-.845-38.522-.845-57.025 0-27.402-.668-57.081-.845-78.989-.071-8.843-.544-17.797-.422-25.767 .809-52.745-1.568-101.871-.845-148.264 .075-4.839-.299-8.145-.422-11.405-.74-19.508 1.03-38.631 0-58.714-.075-1.468 1.064-5.29-2.112-5.491-.759-.055-.989.418-.845,1.266zm31.68.845c1.048,43.217 3.456,90.581 5.491,136.859 .843,19.181 1.287,38.032 2.112,56.18 1.49,32.828 2.851,73.643 5.068,107.292 .615,9.335.403,18.604.845,27.878 1.67,35.062 4.01,69.831 5.491,105.602 .061,1.444-1.219,5.586 2.112,5.491 2.198-1.188 1.3-4.211 1.268-5.913-.046-2.374-.334-4.906-.423-7.182-1.223-31.185-3.567-63.516-5.068-95.041-2.581-54.193-4.651-112.481-7.604-167.272-1.495-27.731-2.341-55.995-3.802-82.369-1.456-26.296-1.306-53.202-2.957-76.878-.12-1.728.926-5.115-1.689-5.914-.758-.055-.987.419-.844,1.267zm-12.25,6.758c-2.137.105-6.523-.249-9.715,0-1.458.113-3.802.035-4.647,1.267v1.69c4.19.25 11.972.018 16.051-.423 2.508-.271 6.278.48 7.181-1.689-1.424-2.562-6.153-.978-8.87-.845zm-14.361,5.492c.626,7.75-.083,14.062.422,20.698 6.289-.329 12.587-.648 19.009-.845-.075-6.2.441-15.279-.845-20.698-5.642.836-13.06-.106-18.586.845zm16.896,21.542c-3.656.151-8.105.375-10.982.422-2.302.039-6.828-1.754-5.914,2.112 2.946,1.246 7.627.191 11.828,0 4.362-.198 8.818.035 12.25-.845-.176-3.32-4.315-1.807-7.182-1.689zm7.603,4.647h-2.957c-.256,8.11.462,16.156.423,22.81 2.376-.045 4.335.43 5.913,2.112-.874-7.792-1.04-17.873-1.267-27.879-.559-.005-.387-.74-.845-.845-.447,1.243-.58,2.799-1.267,3.802zm-24.077.845c-1.052,7.449 1.003,14.463-.422,22.387 7.247,1.289 14.958-.21 20.276-.422-.221-7.249-.238-16.424-.845-22.81-6.977.236-12.136.163-19.009.845zm15.629,24.077c-3.772.175-8.385-.432-11.827,0-1.3.163-4.467-.131-4.224,2.112 .639,2.528 3.736.917 5.914.845 4.533-.152 9.963-.211 13.939-.422 2.341-.124 5.911,1.208 5.491-2.112-2.237-1.805-5.771-.587-9.293-.423zm5.914,5.491c.537,7.643.504,15.13.845,20.275 3.313-.639 4.558.792 5.914,2.112-.228-9.879-1.022-15.704-.846-25.767-.093-.329-.354-.491-.845-.422 .307,3.264-2.587,3.327-5.068,3.802zm-21.543.423c-.097,7.754.455,13.168 0,20.275 8.187.235 12.885-.406 20.698-.422-.6-7.363.431-13.211-.845-20.698-7.537.028-14.281-.294-19.853.845zm23.232,21.12c-5.663.933-17.345-.097-23.232.845 .046,2.095-.415,2.076 0,3.802 5.246-.304 14.37-.751 19.431-.845 2.439-.045 5.612.739 7.181-1.267 .218-1.84-2.216-2.727-3.38-2.535zm3.802,6.336h-4.225c.544,5.533.445,15.309.423,22.81 2.245.256 5.778,1.115 6.759,1.267-.447-9.539-1.221-18.051-1.268-27.034-.089-.474-.469-.658-.845-.845-1.032,1.366-.357,2.521-.844,3.802zm-27.034,1.267c.676,5.704.352,14.809.422,22.388 6.575-.449 13.959-.075 21.121-.845-.213-8.06-.947-15.913-.423-22.388-6.013-.356-15.188-.281-21.12.845zm21.965,23.232c-6.663.128-15.431.374-21.965.845 .092,1.545.581,1.621 0,2.957 4.359.227 11.27-.123 14.784-.422 4.584-.391 12.074,1.978 12.672-2.535-1.154-2.064-3.509-.882-5.491-.845zm1.69,5.914c-.17,8.25.564,15.697.845,22.387 2.685.218 4.559-.411 6.336,0-.349-7.864-1.262-14.974-.845-23.655-1.492-.486-3.876,1.359-6.336,1.268zm-23.233.845c.198,9.652-.153,13.851.422,21.965 7.633.17 14.175-.75 21.965-.422-.077-6.405-.468-12.395-.845-17.318-.121-1.593 1.043-4.724-1.267-5.492-6.765,1.108-14.76-.267-20.275,1.267zm13.517,23.232c-4.571.183-14.241-2.216-13.517,3.379 4.471.354 10.991-.154 16.896-.422 4.229-.192 9.862,1.365 11.405-1.689-2.21-3.169-9.21-1.491-14.784-1.268zm10.983,5.492c-.325,7.366.561,13.52.423,20.698 1.422.744 2.166-.284 4.224,0 1.31.239 1.111,1.987 2.534,2.112-.171-10.016-1.154-14.133-.845-24.5-.089-.474-.469-.658-.845-.845-.109,2.565-3.462,1.888-5.491,2.535zm-1.69,0h-.845c-5.725.332-15.99-.222-21.965,1.267 .752,7.288-.171,14.178.422,20.275 7.596-.43 16.991.939 23.232-.845-.457-6.722-.782-13.578-.844-20.697zm-8.025,22.809c-2.457.112-5.646-.058-8.448,0-2.29.048-6.821-1.052-6.336,2.535 1.248,1.691 4.244.976 6.758.845 5.011-.261 10.417-.359 16.475-.422 2.379-.025 6.631,1.139 6.758-2.112-3.191-2.475-9.559-1.102-15.207-.846zm10.56,5.914c.184,7.363 1.033,14.562.845,21.12 2.011.806 5.81-.177 6.336,2.112-.73,2.085-1.211,4.421-2.534,5.914-1.366.182-3.653-.556-3.802.845 .867,4.645.016,13.47 1.268,19.008 2.122.493 3.683-1.078 5.068,0 .935,2.094.065,5.344 0,6.758-2-.17-2.906.755-5.068.423 .652,7.152.704,13.865.845,21.965 5.625-1.03 7.579,3.969 4.646,8.448-1.435.115-3.425-.327-4.224.423-.376,4.447.989,13.36.845,20.275 1.8.171 4.352-.409 5.491.422 1.645,1.938.251,5.483-.423,7.604-2.291-.461-2.809.853-4.646.845 .602,5.918.359,15.185.845,21.543 1.929.184 4.651-.427 5.914.422 1.002,1.633.701,3.838.422,5.914-1.01,1.384-4.442.345-5.913,1.268 .767,7.164.37,14.571.845,21.12 3.22-.263 5.494.42 7.181,1.689-.129-9.083-.812-19.127-1.267-29.146-.926-20.367-1.638-37.887-2.535-58.291-1.243-28.275-2.396-57.501-3.802-82.792-.093-.329-.354-.491-.845-.422 .306,2.981-3.794,1.555-5.492,2.533zm-24.922.845c-.045,6.192.123,13.565 0,21.542 7.77-.397 15.496-.837 23.655-.845 .672-5.033-.813-15.917-.423-21.965-7.547.699-17.517-.008-23.232,1.268zm23.655,21.965c-5.938.056-11.768.271-17.741.422-3.142.08-6.55-.664-6.336,2.957 4.214,1.059 9.053.215 13.94,0 5.703-.251 11.793.836 16.474-.845-.051-3.127-3.434-2.561-6.337-2.534zm-23.655,7.181c-.216,8.386.495,13.531.423,19.43 6.881.448 15.779-.438 24.499-.422-.155-6.604.386-13.903-.422-19.854-9.101.008-17.169-.069-24.5.846zm29.146,19.853c-4.512-.669-14.021.602-20.275.845-3.385.132-8.677-1.548-8.871,2.534 4.052,1.818 10.547.594 15.629.423 2.76-.093 6.009.029 8.871,0 2.446-.025 6.606,1.108 7.181-2.112-.389-1.421-1.505-1.538-2.535-1.69zm-28.723,7.603c.133,6.075.369,15.235.422,21.542 9.472.18 15.465-.552 24.921-.422-.022-6.234.332-14.821-.422-22.388-8.751.555-16.899-.373-24.921,1.268zm28.3,21.965c-2.031-.293-5.492.288-8.448.422-6.785.309-14.661.34-19.853.846 .284,2.058-.744,2.801 0,4.224 9.618-.038 24.946.167 32.103-1.268 .862-3.027-1.475-3.889-3.802-4.224zm-27.878,8.449c-.151,6.522.421,12.986 0,19.853 8.957,1.089 17.256-.106 26.612-.422-.686-6.883-.198-14.435-.846-20.275-8.885-.017-17.363.376-25.766.844zm12.672,25.766c4.779-.217 19.845.495 20.275-2.534 .379-2.665-4.131-2.626-7.182-2.535-8.704.261-19.309,1.154-25.766,1.268v3.802c4.177-.142 8.487.19 12.673-.001zm-12.672,3.802c.993,6.329-.224,14.867.844,21.12 9.544-.67 16.981-.84 27.034-.845-.079-6.597-1.191-14.603-.845-21.543-9.177.256-19.181-.313-27.033,1.268zm24.499,21.542c-5.19.396-10.35.27-16.474.423-3.048.076-6.354-.169-7.604,1.268v1.689c7.641,1.044 19.469.234 27.456,0 2.466-.072 6.52,1.426 6.759-2.112-2.23-2.026-6.483-1.546-10.137-1.268zm-24.077,7.182c.421,8.905-.297,14.029.422,21.12 9.724.021 17.295-.71 27.879-.423 .474-6.248-1.084-14.937-.422-21.542-8.114-.19-19.012.389-27.879.845zm25.344,21.964c-4.053.084-11.75.423-17.318.423-2.719,0-6.71-1.001-8.025,1.267-.575,2.428 1.744,1.869 2.957,2.112 10.2,2.044 23.47-1.785 32.947-.845 .085-5.307-6.357-3.044-10.561-2.957zm5.491,6.336c.247,5.479 1.133,14.741.846,20.698 2.7-.025 5.699-.35 6.336,1.689 1.176,5.54-2.045,6.685-6.336,6.759 .784,7.493 1.314,12.954 1.267,21.542 1.237.559 2.181-.27 4.225,0 1.384.361 1.995,3.083 3.379,2.112-1.367-19.772-.914-39.137-2.957-54.913-.023-.257-.062-.5-.422-.422-.695,2.264-4.044,1.872-6.338,2.535zm-29.99.845c-1.181,5.926-.07,15.771 0,21.12 10.581-.076 18.696-.411 28.724-.845 .419-5.935-.658-13.967-.423-21.12-7.288-.3-19.264.277-28.301.845zm24.077,21.543c-7.219.868-16.956.685-24.077,1.268 .185,1.452-.167,2.367-.423,3.379 10.166.029 22.286.041 31.681-.845 1.227-.116 3.444.826 4.225-.845 1.789-4.361-8.322-3.328-11.406-2.957zm-24.077,8.025c-.102,7.549.593,15.647.422,21.966 10.123-.748 19.521-.404 29.568-1.69 .398-7.635-.334-14.462-.422-21.542-10.47-.193-19.793.763-29.568,1.266zm31.258,22.388c-8.949.007-23.574.345-30.836,1.268 .245,1.371-.287,1.965-.422,2.956 8.561,1.531 19.579-.182 26.611-.422 3.634-.124 7.492.761 10.982-.845-.341-3.737-3.251-2.959-6.335-2.957zm1.267,7.181c1.059,4.16 1.316,12.642.422,16.052 2.434,1.368 4.653,2.95 8.026,3.379-.654-8.912-.938-16.035-1.268-24.499-.093-.329-.354-.491-.845-.423-.096,3.844-2.36,5.523-6.335,5.491zm-32.103.844c-.222,4.718.671,6.844 0,10.982 1.128.704 3.774-.113 3.802,1.69-1.01.257-3.064-.53-3.379.422 7.281,1.402 16.245-.233 23.232.423 1.663.156 4.059.1 5.068,1.689-9.193.085-19.134-1.036-28.301-.423 9.576,1.125 20.175,1.228 30.836,1.268-.314-5.74-1.439-10.67-1.268-16.896-8.521-.601-19.146.543-29.99.845zm5.069,18.586c1.678.045 3.626-.866 5.491-.422 7.104,1.203 17.141,1.725 24.922.845-10.764-1.486-23.532-.968-35.06-1.689 .898,1.182 3.184,1.228 4.647,1.266zm-27.034,2.957c-1.566.3-1.812-.722-3.379-.422-3.087.088.051.674 2.534.845 2.712.187 5.284-.236 6.759-.423 1.868-.301 4.049,1.277 5.491,0-3.632-.394-8.453-1.371-11.405,0z" fill-rule="evenodd"/>
</svg>
